<svg width="48" height="44" viewBox="0 0 48 44" fill="none" xmlns="http://www.w3.org/2000/svg">
<path d="M0 44V42.93L0.424004 42.8872C1.52327 42.7445 2.41839 42.5447 3.10936 42.2879C3.83174 42.0311 4.44419 41.6174 4.94671 41.0467C5.48064 40.4475 5.98316 39.6342 6.45428 38.607L17.8553 13.4825H19.4571L30.5754 38.607C31.2035 40.0052 31.8788 41.0324 32.6012 41.6887C33.3235 42.345 34.3129 42.7302 35.5692 42.8444L36.5114 42.93V44L30.6696 43.8716L23.1318 44V42.93L24.074 42.8444C25.1732 42.7302 25.9584 42.5162 26.4296 42.2023C26.9007 41.8885 27.1362 41.4462 27.1362 40.8755C27.1362 40.3048 26.9164 39.5344 26.4767 38.5642L24.0269 33H10.7414L8.1974 38.5642C7.97755 39.0778 7.7891 39.5486 7.63206 39.9767C7.47503 40.3761 7.39651 40.7328 7.39651 41.0467C7.39651 41.5888 7.64777 42.0026 8.15029 42.2879C8.68422 42.5733 9.54793 42.7588 10.7414 42.8444L11.6837 42.93V44L5.70049 43.8716L0 44ZM11.3539 31.6304H23.4615L17.5255 18.0623L11.3539 31.6304Z" fill="black"/>
<path d="M29.5323 42.1595L17.1891 15.751C16.7808 14.8664 16.2625 14.153 15.6344 13.6109C15.0376 13.0402 14.1582 12.655 12.9962 12.4553L12.0539 12.284V11.214L19.0735 11.3424L26.0931 11.214V12.284L24.6798 12.4124C23.7062 12.4981 22.921 12.7263 22.3242 13.0973C21.7589 13.4397 21.4762 13.9676 21.4762 14.6809C21.4762 15.1946 21.649 15.8366 21.9944 16.607L31.511 37.109L40.6506 16.5642C40.8391 16.1647 40.9647 15.808 41.0275 15.4942C41.1217 15.1518 41.1688 14.8521 41.1688 14.5953C41.1688 13.9105 40.9176 13.4112 40.4151 13.0973C39.9125 12.7549 39.2216 12.5409 38.3421 12.4553L36.6932 12.284V11.214L43.2888 11.3424L48 11.214V12.2412L46.9164 12.4553C45.7229 12.6835 44.7964 13.1258 44.1369 13.7821C43.4773 14.4384 42.8806 15.38 42.3466 16.607L31.0399 42.1595H29.5323Z" fill="black"/>
<path d="M17.6696 2.6751C17.6696 4.15251 16.3513 5.35019 14.7251 5.35019C13.0989 5.35019 11.7806 4.15251 11.7806 2.6751C11.7806 1.19768 13.0989 0 14.7251 0C16.3513 0 17.6696 1.19768 17.6696 2.6751Z" fill="black"/>
<path d="M25.9141 2.6751C25.9141 4.15251 24.5958 5.35019 22.9696 5.35019C21.3434 5.35019 20.0252 4.15251 20.0252 2.6751C20.0252 1.19768 21.3434 0 22.9696 0C24.5958 0 25.9141 1.19768 25.9141 2.6751Z" fill="black"/>
</svg>
